# xmcd
#
# Track frame offsets:
#	150
#	19690
#	39220
#
# Disc length: 730 seconds
#
# Revision: 0
# Processed by: cddbd v1.5.1PL0 Copyright (c) Steve Scherf et al.
# Submitted via: dBpowerAMP V4.0
#
DISCID=1502d803
DTITLE=Kulcha - Fly Girl
DYEAR=1900
DGENRE=
TTITLE0=Fly Girl (Single Mix)
TTITLE1=Fly Girl (Album Mix)
TTITLE2=Bring It On (Album Mix)
EXTD=
EXTT0=
EXTT1=
EXTT2=
PLAYORDER=
